<?xml version="1.0" encoding="UTF-8"?><svg xmlns="http://www.w3.org/2000/svg" viewBox="0 0 141.73 141.73"><defs><style>.e{fill:none;stroke:#999;stroke-miterlimit:10;}.f{fill:#333;}.g{opacity:.26;}.h{fill:#999;}.i{fill:#666;}</style></defs><g id="a"/><g id="b"><path d="M71.57,18.16c28.8,0,52.14,23.34,52.14,52.14s-23.34,52.14-52.14,52.14-52.14-23.34-52.14-52.14S42.77,18.16,71.57,18.16m0-9c-33.71,0-61.14,27.43-61.14,61.14s27.43,61.14,61.14,61.14,61.14-27.43,61.14-61.14S105.28,9.16,71.57,9.16h0Z"/><line class="e" x1="71.57" y1="18.16" x2="71.57" y2="122.45"/><line class="e" x1="45.5" y1="25.15" x2="97.64" y2="115.46"/><line class="e" x1="26.41" y1="44.23" x2="116.72" y2="96.38"/><line class="e" x1="19.43" y1="70.3" x2="123.71" y2="70.3"/><line class="e" x1="26.41" y1="96.38" x2="116.72" y2="44.23"/><line class="e" x1="45.5" y1="115.46" x2="97.64" y2="25.15"/><g><polygon class="f" points="67.33 80.53 61.34 80.53 61.34 74.54 57.11 70.31 61.34 66.07 61.34 60.08 67.33 60.08 71.57 55.85 75.8 60.08 81.79 60.08 81.79 66.07 86.03 70.31 81.79 74.54 81.79 80.53 75.8 80.53 71.57 84.77 67.33 80.53"/><path class="f" d="M71.57,57.97l3.61,3.61h5.11v5.11l3.61,3.61-3.61,3.61v5.11h-5.11l-3.61,3.61-3.61-3.61h-5.11v-5.11l-3.61-3.61,3.61-3.61v-5.11h5.11l3.61-3.61m0-4.24l-2.12,2.12-2.74,2.74h-6.87v6.87l-2.74,2.74-2.12,2.12,2.12,2.12,2.74,2.74v6.87h6.87l2.74,2.74,2.12,2.12,2.12-2.12,2.74-2.74h6.87v-6.87l2.74-2.74,2.12-2.12-2.12-2.12-2.74-2.74v-6.87h-6.87l-2.74-2.74-2.12-2.12h0Z"/></g><polygon class="i" points="78.14 56.47 80.27 62.45 86 65.17 83.28 70.9 85.4 76.88 79.42 79.01 76.7 84.74 70.97 82.01 64.99 84.14 62.87 78.16 57.13 75.44 59.86 69.71 57.73 63.73 63.71 61.6 66.43 55.87 72.16 58.6 78.14 56.47"/><g><path class="i" d="M71.57,78.88c-4.73,0-8.57-3.85-8.57-8.57s3.85-8.58,8.57-8.58,8.58,3.85,8.58,8.58-3.85,8.57-8.58,8.57Z"/><path class="h" d="M71.57,62.73c4.18,0,7.57,3.4,7.57,7.57s-3.4,7.57-7.57,7.57-7.57-3.4-7.57-7.57,3.4-7.57,7.57-7.57m0-2c-5.29,0-9.57,4.29-9.57,9.57s4.29,9.57,9.57,9.57,9.57-4.29,9.57-9.57-4.29-9.57-9.57-9.57h0Z"/></g></g><g id="c"/><g id="d" class="g"/></svg>