<?xml version="1.0" encoding="UTF-8"?><svg xmlns="http://www.w3.org/2000/svg" viewBox="0 0 141.73 141.73"><defs><style>.e{fill:none;stroke:#999;stroke-miterlimit:10;}.f{opacity:.26;}.g{fill:#999;}.h{fill:#666;}</style></defs><g id="a"/><g id="b"><path d="M71.44,18.72c28.8,0,52.14,23.34,52.14,52.14s-23.34,52.14-52.14,52.14-52.14-23.34-52.14-52.14S42.65,18.72,71.44,18.72m0-9c-33.71,0-61.14,27.43-61.14,61.14s27.43,61.14,61.14,61.14,61.14-27.43,61.14-61.14S105.16,9.72,71.44,9.72h0Z"/><line class="e" x1="71.44" y1="18.72" x2="71.44" y2="123.01"/><line class="e" x1="45.37" y1="25.71" x2="97.51" y2="116.02"/><line class="e" x1="26.29" y1="44.8" x2="116.6" y2="96.94"/><line class="e" x1="19.3" y1="70.87" x2="123.58" y2="70.87"/><line class="e" x1="26.29" y1="96.94" x2="116.6" y2="44.8"/><line class="e" x1="45.37" y1="116.02" x2="97.51" y2="25.71"/><g><path class="h" d="M71.52,78.94c-4.45,0-8.07-3.62-8.07-8.07s3.62-8.08,8.07-8.08,8.08,3.62,8.08,8.08-3.62,8.07-8.08,8.07Z"/><path class="g" d="M71.52,64.29c3.63,0,6.57,2.95,6.57,6.57s-2.95,6.57-6.57,6.57-6.57-2.95-6.57-6.57,2.95-6.57,6.57-6.57m0-3c-5.29,0-9.57,4.29-9.57,9.57s4.29,9.57,9.57,9.57,9.57-4.29,9.57-9.57-4.29-9.57-9.57-9.57h0Z"/></g></g><g id="c"/><g id="d" class="f"/></svg>