<?xml version="1.0" encoding="UTF-8"?><svg xmlns="http://www.w3.org/2000/svg" viewBox="0 0 566.93 566.93"><defs><style>.e{stroke-width:2px;}.e,.f,.g{stroke:#666;}.e,.f,.g,.h,.i,.j,.k{stroke-linecap:round;}.e,.g,.h,.i,.j,.k{stroke-miterlimit:10;}.e,.k{fill:none;}.f{stroke-linejoin:round;}.f,.g,.h,.l,.i,.j{fill:gray;}.f,.h{stroke-width:3px;}.g,.i{stroke-width:14px;}.h{stroke:#4d4d4d;}.i{stroke:#b3b3b3;}.j{stroke:#00a99d;stroke-width:6px;}.m{opacity:.26;}.k{stroke:#fbb03b;stroke-width:8px;}.n{fill:#ccc;}.o{fill:#666;}</style></defs><g id="a"/><g id="b"/><g id="c"><polygon class="l" points="227.02 247.27 209.56 256.38 209.56 232.3 227.02 241.06 227.02 247.27"/><line class="e" x1="304.81" y1="379.91" x2="399.65" y2="366.13"/><line class="e" x1="301.49" y1="331.26" x2="399.65" y2="344.82"/><line class="h" x1="326.54" y1="330.38" x2="300.46" y2="356.45"/><g><path class="l" d="M300.46,373.33c-9.69,0-17.57-7.88-17.57-17.57s7.88-17.57,17.57-17.57,17.57,7.88,17.57,17.57-7.88,17.57-17.57,17.57Z"/><path class="n" d="M300.46,346.69c5,0,9.07,4.07,9.07,9.07s-4.07,9.07-9.07,9.07-9.07-4.07-9.07-9.07,4.07-9.07,9.07-9.07m0-17c-14.4,0-26.07,11.67-26.07,26.07s11.67,26.07,26.07,26.07,26.07-11.67,26.07-26.07-11.67-26.07-26.07-26.07h0Z"/><path class="o" d="M300.46,331.69c13.27,0,24.07,10.8,24.07,24.07s-10.8,24.07-24.07,24.07-24.07-10.8-24.07-24.07,10.8-24.07,24.07-24.07m0-2c-14.4,0-26.07,11.67-26.07,26.07s11.67,26.07,26.07,26.07,26.07-11.67,26.07-26.07-11.67-26.07-26.07-26.07h0Z"/></g><rect class="f" x="320.2" y="323.37" width="20.85" height="6.32"/><path class="k" d="M335.99,323.37s-77.66-69.06-52.52-75.73c27.29-7.24,41.73,0,41.73,0"/><line class="k" x1="331.79" y1="323.37" x2="321.37" y2="323.37"/><line class="j" x1="401.05" y1="355.76" x2="300.67" y2="355.76"/><line class="j" x1="238.3" y1="225.53" x2="173.81" y2="356.45"/><line class="j" x1="348.91" y1="252.01" x2="301.49" y2="355.76"/><line class="j" x1="335.99" y1="280.28" x2="401.05" y2="355.76"/><line class="j" x1="215.98" y1="270.85" x2="335.99" y2="280.28"/><path class="k" d="M255.26,219.04s19.43-13.81,36.81-29.5c11.21-10.12,19.43-21.03,28.14-29.5"/><line class="j" x1="238.3" y1="225.53" x2="263.97" y2="225.53"/><line class="g" x1="249.88" y1="224.76" x2="267.04" y2="224.76"/><line class="i" x1="228.37" y1="244.34" x2="228.37" y2="244.34"/><line class="j" x1="215.98" y1="270.85" x2="300.93" y2="355.75"/><line class="h" x1="300.46" y1="355.76" x2="274.39" y2="381.83"/><rect class="f" x="263.97" y="378.67" width="20.85" height="6.32"/><ellipse class="l" cx="340.98" cy="255.5" rx="26.61" ry="7.86"/><path class="k" d="M263.97,225.53s28.23-9.06,43.25-31.03c20.66-30.22,17.98-34.47,17.98-34.47,23.37,49.07,0,87.61,0,87.61,0,0-55.34,42.87-50.8,128.55h-10.42"/><circle class="k" cx="313.5" cy="124.22" r="35.81"/></g><g id="d" class="m"/></svg>